<?xml version="1.0" encoding="UTF-8" standalone="no"?>
<!-- Created with Inkscape (http://www.inkscape.org/) by Marsupilami -->

<svg
   version="1.0"
   width="25.400524mm"
   height="25.400526mm"
   viewBox="0 0 13.714284 13.714285"
   id="svg2678"
   xml:space="preserve"
   xmlns="http://www.w3.org/2000/svg"
   xmlns:svg="http://www.w3.org/2000/svg"><defs
     id="defs2680" /><path
     id="path3"
     style="fill:#ffffff;stroke-width:0.00609889"
     d="M 6.5812528,0.00500721 C 6.4152635,0.01388416 6.2494192,0.02457447 6.0842768,0.04396576 5.9075822,0.06406205 5.7316112,0.09091748 5.5570166,0.12487936 5.4241149,0.14988635 5.292063,0.18017622 5.1609954,0.2134092 4.9871659,0.25781723 4.8151686,0.30922866 4.6452499,0.36668808 4.491001,0.41928402 4.3391022,0.4780672 4.1885288,0.54035592 4.0265272,0.60986661 3.8666692,0.6842362 3.709982,0.76508214 3.550614,0.84748532 3.3945508,0.93621815 3.242045,1.0307551 3.0949661,1.1219544 2.9511111,1.2185747 2.8117372,1.3212462 2.6955432,1.4048311 2.5830765,1.4937572 2.4729026,1.585078 2.3360592,1.6986906 2.2038268,1.8178312 2.076243,1.9416876 1.9606533,2.0543083 1.8494469,2.1710888 1.7412983,2.2908568 1.6234264,2.4240239 1.5099515,2.5610019 1.4020527,2.7024027 1.2946159,2.8441048 1.1921374,2.9895886 1.0958172,3.1391084 1.0223497,3.2526561 0.95224334,3.3686346 0.88590923,3.4865025 0.79824137,3.6412312 0.71717927,3.7996454 0.64179041,3.9606749 0.56617394,4.1234055 0.49691128,4.289002 0.43356491,4.4568621 0.37760651,4.6082303 0.32660199,4.7612217 0.28040151,4.9158464 0.22993709,5.0880278 0.18588183,5.2620465 0.14857332,5.4375737 0.11191053,5.6115301 0.08168569,5.7868755 0.05871841,5.9631962 0.04053064,6.0987978 0.02684014,6.2351858 0.01740711,6.371683 0.00457348,6.5490905 -9.2582245e-4,6.7269926 1.2632129e-4,6.9048333 0.00143852,7.0826626 0.01001477,7.2603229 0.02425601,7.4375543 c 0.0144682,0.1607474 0.03340861,0.3209281 0.05810006,0.4804343 0.02812863,0.1771676 0.06278948,0.3532919 0.10419996,0.5278646 0.0407724,0.1714492 0.0882161,0.3413653 0.14248965,0.5090644 0.0416343,0.1319642 0.0885304,0.2624185 0.1387257,0.3913641 0.0644688,0.1657734 0.13559362,0.328916 0.21267059,0.4891835 0.0708344,0.1467815 0.14737274,0.2905568 0.22740728,0.4325108 0.0894609,0.153692 0.18336885,0.30473 0.28334445,0.451848 0.1005531,0.14668 0.2061652,0.289921 0.3175613,0.428596 0.1101862,0.137524 0.2257598,0.270823 0.3466622,0.399076 0.094049,0.101504 0.1924423,0.199128 0.2928285,0.294336 0.1305144,0.123138 0.2657206,0.241273 0.4052661,0.354027 0.1268806,0.102287 0.2578156,0.19916 0.3909246,0.29316 0.1453415,0.09974 0.2935817,0.19515 0.4456527,0.284368 0.1534608,0.08981 0.3103955,0.17373 0.4704157,0.251332 0.1230218,0.05991 0.2479153,0.116446 0.3745589,0.168298 0.1642673,0.06811 0.3312058,0.129833 0.500295,0.18478 0.1706445,0.05539 0.3433744,0.104191 0.5177064,0.146445 0.1585265,0.03785 0.3182333,0.06985 0.4788333,0.09755 0.1755539,0.02837 0.3519798,0.05111 0.5291604,0.06672 0.1771561,0.01515 0.3548724,0.02396 0.5326996,0.02541 0.1352544,0.0014 0.2707307,-0.0012 0.4058107,-0.0083 0.1776402,-0.0088 0.3549324,-0.02454 0.5313185,-0.0471 0.1763971,-0.02278 0.3517635,-0.05269 0.5259982,-0.08825 0.1593389,-0.03409 0.3175423,-0.0727 0.4744203,-0.116772 0.1723894,-0.04962 0.3430604,-0.105109 0.5113074,-0.167431 0.1666647,-0.06199 0.331066,-0.130141 0.4923867,-0.205009 0.1229081,-0.05649 0.244053,-0.117218 0.3632618,-0.18113 0.156799,-0.08396 0.310112,-0.174355 0.460004,-0.270014 0.137161,-0.088 0.270544,-0.181445 0.401838,-0.277948 0.140682,-0.106221 0.278147,-0.216629 0.410915,-0.332644 0.133663,-0.117295 0.263166,-0.239358 0.387387,-0.366654 0.09466,-0.09658 0.186666,-0.196016 0.275142,-0.298293 0.1167,-0.134178 0.228066,-0.272966 0.333949,-0.415801 0.105771,-0.143027 0.205784,-0.290209 0.300802,-0.440536 0.08493,-0.137204 0.166155,-0.276511 0.242175,-0.418858 0.08385,-0.1586132 0.162115,-0.3201858 0.23385,-0.4846692 0.07031,-0.1616057 0.134646,-0.3258705 0.191953,-0.492563 0.04542,-0.1290444 0.08562,-0.2600645 0.122912,-0.3916736 0.04816,-0.1712093 0.08921,-0.3443376 0.124243,-0.5186694 0.03107,-0.1583505 0.05661,-0.3175827 0.07751,-0.4775886 0.02164,-0.1765248 0.03725,-0.353784 0.04576,-0.5314651 0.0083,-0.1776173 0.0099,-0.3555685 0.0043,-0.5333166 -0.0037,-0.1352067 -0.01204,-0.2704446 -0.02415,-0.4051493 C 13.670999,6.0669913 13.648018,5.8905398 13.618674,5.7151651 13.591246,5.552909 13.557085,5.3920445 13.519488,5.2318629 13.476554,5.0609289 13.428689,4.891282 13.374092,4.7236694 13.318537,4.5547658 13.256732,4.3878896 13.188366,4.2237099 13.120781,4.0609302 13.046819,3.9007491 12.966401,3.7438849 12.904402,3.6201623 12.83694,3.4990507 12.766941,3.3797114 12.676779,3.226394 12.58048,3.0767865 12.478965,2.9307756 12.385358,2.7973473 12.287123,2.6674098 12.185249,2.5401927 12.0727,2.4025339 11.955626,2.2686027 11.833406,2.1394044 11.710748,2.01071 11.583694,1.8861492 11.451561,1.7671345 11.350081,1.6753597 11.2458,1.5863909 11.138621,1.5013415 11.001118,1.391036 10.858947,1.2866097 10.713386,1.187251 10.578722,1.0954047 10.440224,1.009702 10.300013,0.92662387 10.147023,0.83908507 9.9914661,0.75610731 9.8327691,0.67930608 9.6710346,0.60165694 9.5062946,0.53029641 9.3390952,0.46517671 9.1748139,0.40136785 9.0080472,0.3439056 8.839205,0.29331321 8.7069198,0.25261557 8.5728987,0.2170869 8.4382532,0.18513949 8.2652645,0.14395363 8.0906193,0.10998272 7.9150087,0.08224287 7.7523942,0.05686862 7.5889796,0.03826917 7.4251092,0.02322103 7.249347,0.00995621 7.0732772,0.00146692 6.896986,2.6600176e-4 6.7917676,-0.00120459 6.6864788,0.00384902 6.5812528,0.00500721 Z" /><path
     d="M 4.2357866,1.2003082 V 5.6392551 H 6.3073753 V 2.9758376 h 1.183765 V 5.6392551 H 9.5626466 V 1.2003082 Z"
     style="fill:#000000;fill-opacity:1;fill-rule:nonzero;stroke:none;stroke-width:0.0657639"
     id="path25522" /><text
     xml:space="preserve"
     style="font-style:normal;font-variant:normal;font-weight:normal;font-stretch:normal;font-size:6.04828px;font-family:Menlo;-inkscape-font-specification:'Menlo, Normal';font-variant-ligatures:normal;font-variant-caps:normal;font-variant-numeric:normal;font-variant-east-asian:normal;writing-mode:lr-tb;direction:ltr;fill:#000000;stroke-width:0.504023"
     x="1.9163929"
     y="11.022502"
     id="text25"><tspan
       id="tspan25"
       style="font-style:normal;font-variant:normal;font-weight:normal;font-stretch:normal;font-size:6.04828px;font-family:Menlo;-inkscape-font-specification:'Menlo, Normal';font-variant-ligatures:normal;font-variant-caps:normal;font-variant-numeric:normal;font-variant-east-asian:normal;stroke-width:0.504023"
       x="1.9163929"
       y="11.022502">MCP</tspan></text></svg>
